<svg xmlns="http://www.w3.org/2000/svg" width="64" height="64" viewBox="0 0 64 64" role="img" aria-label="Nested Vaults">
  <rect x="1" y="1" width="62" height="62" rx="13" fill="#13191c" stroke="#2a363d" stroke-width="1"/>
  <path d="M15,19.5
           a3,3 0 0 1 3,-3
           h11
           a3,3 0 0 1 2.3,1.1
           l2.9,3.4
           h11.8
           a3,3 0 0 1 3,3
           v22
           a3,3 0 0 1 -3,3
           h-28
           a3,3 0 0 1 -3,-3
           z"
        fill="none" stroke="#b4c3bd" stroke-width="2.4" stroke-linejoin="round"/>
  <path d="M24.5,33
           a1.8,1.8 0 0 1 1.8,-1.8
           h5.6
           a1.8,1.8 0 0 1 1.4,0.6
           l1.5,1.8
           h6
           a1.8,1.8 0 0 1 1.8,1.8
           v8
           a1.8,1.8 0 0 1 -1.8,1.8
           h-14.5
           a1.8,1.8 0 0 1 -1.8,-1.8
           z"
        fill="#63f2ab"/>
</svg>
